<svg xmlns="http://www.w3.org/2000/svg" xmlns:xlink="http://www.w3.org/1999/xlink" width="500" zoomAndPan="magnify" viewBox="0 0 375 374.999991" height="500" preserveAspectRatio="xMidYMid meet" version="1.0"><defs><clipPath id="id1"><path d="M 50.261719 88 L 324.761719 88 L 324.761719 287 L 50.261719 287 Z M 50.261719 88 " clip-rule="nonzero"/></clipPath></defs><g clip-path="url(#id1)"><path fill="#100f0d" d="M 309.824219 279.898438 L 275.4375 279.898438 C 273.488281 279.898438 271.539062 278.289062 271.539062 275.996094 L 271.539062 270.167969 C 295.25 269.824219 311.457031 269.507812 311.773438 269.507812 C 312.429688 269.507812 312.769531 269.507812 313.40625 269.191406 L 313.40625 275.996094 C 313.40625 278.289062 311.773438 279.898438 309.824219 279.898438 Z M 107.699219 263.996094 C 107.359375 263.996094 107.042969 263.65625 106.726562 263.65625 C 106.382812 263.65625 106.066406 263.65625 105.75 263.996094 C 80.746094 263.65625 63.566406 263.339844 63.566406 263.339844 C 54.476562 257.828125 59.667969 203.589844 59.984375 196.441406 C 60.644531 187.347656 62.59375 188.980469 64.859375 183.46875 C 66.492188 179.25 76.871094 168.203125 82.378906 157.496094 C 82.378906 157.496094 72 157.8125 64.859375 157.8125 C 61.300781 157.8125 58.375 157.8125 58.058594 157.496094 C 57.085938 156.519531 55.453125 147.105469 58.058594 144.8125 C 60.324219 143.203125 72.65625 138.328125 76.871094 138.328125 C 77.507812 138.328125 78.164062 138.328125 78.164062 138.644531 C 79.457031 140.59375 78.824219 151.324219 80.113281 151.960938 C 80.746094 152.300781 82.699219 152.300781 84.011719 152.617188 C 84.332031 151.324219 84.648438 150.351562 84.988281 149.035156 C 89.835938 137.351562 114.5 98.722656 120.664062 97.40625 C 125.539062 96.429688 167.066406 94.820312 183.929688 94.820312 L 191.09375 94.820312 C 207.617188 94.820312 249.167969 96.429688 254.355469 97.40625 C 260.523438 98.722656 285.5 137.351562 290.035156 149.035156 C 290.351562 150.007812 290.691406 151.324219 291.007812 152.617188 C 292.640625 152.617188 294.25 152.300781 294.910156 151.960938 C 296.199219 151.324219 295.566406 140.9375 296.859375 138.644531 C 297.175781 138.328125 297.515625 138.328125 298.148438 138.328125 C 302.367188 138.328125 315.039062 143.203125 316.988281 144.8125 C 319.570312 146.765625 317.9375 156.519531 316.988281 157.496094 C 316.644531 157.8125 313.722656 157.8125 310.164062 157.8125 C 303.023438 157.8125 292.640625 157.496094 292.640625 157.496094 C 298.148438 167.886719 308.53125 179.25 310.164062 183.46875 C 312.113281 188.980469 314.378906 187.6875 315.039062 196.441406 C 315.355469 203.269531 320.546875 257.828125 311.457031 263.339844 C 311.457031 263.339844 294.25 263.65625 269.273438 263.996094 C 268.953125 263.996094 268.636719 263.65625 268.296875 263.65625 C 267.980469 263.65625 267.640625 263.65625 267.320312 263.996094 C 244.632812 264.3125 215.753906 264.628906 187.511719 264.628906 C 158.949219 264.628906 130.414062 264.3125 107.699219 263.996094 Z M 103.144531 275.996094 C 103.144531 277.945312 101.535156 279.898438 99.269531 279.898438 L 65.199219 279.898438 C 63.25 279.898438 61.300781 278.289062 61.300781 275.996094 L 61.300781 269.191406 C 61.933594 269.191406 62.277344 269.507812 62.910156 269.507812 C 63.25 269.507812 79.457031 269.824219 103.144531 270.167969 Z M 321.835938 199.6875 C 321.835938 198.078125 321.519531 196.785156 321.519531 196.125 C 321.179688 188.980469 319.570312 186.394531 317.621094 183.785156 C 316.988281 182.808594 316.644531 182.492188 316.328125 181.199219 C 315.355469 178.589844 313.089844 175.347656 309.1875 170.46875 C 307.875 168.519531 306.265625 166.566406 304.65625 164.300781 L 310.164062 164.300781 C 316.644531 164.300781 318.9375 164.300781 321.179688 162.347656 C 324.445312 159.421875 324.761719 151.960938 324.761719 149.691406 C 324.761719 145.15625 323.46875 141.886719 321.179688 139.960938 C 317.621094 137.035156 303.65625 131.839844 298.148438 131.839844 C 294.25 131.839844 292.300781 133.789062 291.351562 135.082031 C 291.007812 135.402344 291.007812 135.742188 290.691406 136.375 C 287.132812 130.207031 282.578125 123.058594 278.042969 115.914062 C 262.472656 92.867188 257.914062 91.894531 255.648438 91.234375 C 249.484375 89.941406 205.351562 88.648438 191.09375 88.648438 L 183.929688 88.648438 C 169.671875 88.648438 125.855469 89.941406 119.375 91.234375 C 110.625 93.1875 93.078125 120.792969 84.332031 136.691406 C 84.011719 136.375 84.011719 135.742188 83.671875 135.402344 C 82.699219 134.109375 80.746094 132.15625 76.871094 132.15625 C 71.367188 132.15625 57.402344 137.351562 53.84375 140.277344 C 51.554688 142.230469 50.261719 145.472656 50.261719 150.007812 C 50.261719 152.300781 50.261719 159.765625 53.84375 162.691406 C 55.769531 164.617188 58.375 164.617188 64.859375 164.617188 L 70.390625 164.617188 C 68.757812 166.910156 67.464844 168.859375 65.832031 170.785156 C 61.933594 175.980469 59.667969 178.90625 58.691406 181.519531 C 58.375 182.808594 57.71875 183.128906 57.402344 184.101562 C 55.453125 186.710938 54.160156 189.296875 53.503906 196.441406 C 53.503906 197.101562 53.503906 198.394531 53.1875 200.027344 C 50.261719 238.339844 51.554688 255.558594 55.453125 263.339844 C 55.453125 263.65625 55.136719 263.996094 55.136719 264.628906 L 55.136719 276.335938 C 55.136719 281.847656 59.667969 286.726562 65.515625 286.726562 L 99.585938 286.726562 C 105.09375 286.726562 109.96875 282.164062 109.96875 276.335938 L 109.96875 270.800781 C 132.339844 271.140625 160.265625 271.460938 187.828125 271.460938 C 215.414062 271.460938 243 271.140625 265.714844 270.800781 L 265.714844 276.335938 C 265.714844 281.847656 270.246094 286.726562 276.09375 286.726562 L 310.164062 286.726562 C 315.671875 286.726562 320.546875 282.164062 320.546875 276.335938 L 320.546875 264.628906 C 320.546875 264.3125 320.546875 263.65625 320.226562 263.339844 C 323.46875 255.558594 324.761719 238.339844 321.835938 199.6875 " fill-opacity="1" fill-rule="nonzero"/></g><path fill="#100f0d" d="M 124.246094 106.5 L 124.882812 106.5 C 124.882812 106.5 138.1875 103.257812 186.851562 103.257812 C 235.542969 103.257812 249.484375 106.5 249.484375 106.5 L 250.117188 106.5 C 250.773438 106.5 257.257812 109.425781 277.726562 151.960938 C 276.09375 152.300781 273.828125 152.933594 271.539062 152.933594 L 102.511719 152.933594 C 100.21875 152.617188 97.953125 152.300781 96.660156 151.960938 C 117.425781 108.769531 123.90625 106.5 124.246094 106.5 Z M 102.167969 159.765625 L 271.878906 159.765625 C 278.679688 159.105469 282.894531 157.8125 284.527344 155.203125 C 285.183594 153.910156 285.183594 152.617188 284.527344 151.324219 L 283.894531 149.691406 C 261.15625 102.28125 254.015625 100.332031 251.117188 100.015625 C 248.851562 99.355469 233.59375 96.429688 187.195312 96.429688 C 141.113281 96.429688 126.195312 99.355469 123.90625 100.015625 C 120.664062 100.332031 113.523438 102.28125 90.8125 149.691406 L 90.179688 150.984375 C 89.519531 152.300781 89.519531 153.910156 90.179688 154.886719 C 91.152344 157.496094 95.371094 159.105469 102.167969 159.765625 Z M 260.839844 196.785156 C 263.421875 194.492188 283.550781 190.613281 298.808594 188.980469 L 299.125 188.980469 C 299.78125 191.589844 295.882812 201.003906 293.933594 202.613281 C 290.351562 204.246094 262.789062 209.441406 256.941406 206.832031 C 255.332031 206.199219 254.675781 205.539062 254.675781 205.222656 C 254.355469 203.929688 257.597656 201.003906 258.890625 199.371094 C 259.207031 198.078125 260.207031 197.417969 260.839844 196.785156 Z M 255.648438 192.566406 L 253.699219 194.492188 C 250.773438 197.761719 246.898438 201.636719 247.851562 206.199219 C 248.507812 208.78125 250.457031 211.050781 254.015625 212.367188 C 255.964844 213.003906 258.890625 213.34375 262.15625 213.34375 C 274.460938 213.34375 293.617188 209.125 296.199219 207.808594 C 300.097656 205.855469 306.921875 192.882812 304.972656 186.710938 C 304 183.46875 301.414062 181.835938 297.515625 182.152344 C 296.199219 182.492188 260.523438 186.710938 255.648438 192.566406 Z M 76.214844 188.664062 L 76.53125 188.664062 C 91.46875 190.273438 111.917969 194.175781 114.183594 196.441406 C 114.839844 197.101562 115.472656 198.078125 116.449219 199.050781 C 117.742188 200.34375 121.007812 203.589844 120.664062 204.882812 C 120.664062 205.222656 120.03125 205.855469 118.398438 206.515625 C 112.550781 209.125 84.648438 203.929688 81.40625 202.296875 C 79.457031 200.660156 75.238281 191.25 76.214844 188.664062 Z M 78.824219 208.148438 C 81.40625 209.441406 100.558594 213.660156 112.890625 213.660156 C 116.449219 213.660156 119.058594 213.34375 121.007812 212.683594 C 124.5625 211.050781 126.515625 209.125 127.171875 206.515625 C 128.121094 201.980469 124.246094 198.078125 121.324219 194.832031 C 120.664062 194.175781 120.03125 193.199219 119.375 192.882812 C 114.5 187.027344 78.824219 182.808594 77.191406 182.492188 C 73.632812 182.152344 70.707031 183.785156 69.734375 187.027344 C 68.101562 193.199219 74.605469 206.199219 78.824219 208.148438 Z M 252.066406 247.097656 L 252.066406 245.804688 C 252.066406 244.195312 253.382812 242.558594 255.332031 242.558594 L 296.515625 242.558594 C 298.148438 242.558594 299.78125 243.851562 299.78125 245.804688 L 299.78125 248.730469 L 252.066406 248.730469 Z M 300.097656 255.21875 C 302.046875 255.21875 303.65625 254.582031 304.65625 253.609375 C 306.605469 251.65625 306.265625 249.046875 306.265625 246.777344 L 306.265625 245.488281 C 306.265625 240.292969 302.046875 235.730469 296.515625 235.730469 L 255.332031 235.730469 C 250.117188 235.730469 245.585938 239.949219 245.585938 245.488281 L 245.585938 246.777344 C 245.585938 249.046875 245.585938 251.65625 247.21875 253.609375 C 248.191406 254.582031 249.800781 255.21875 251.75 255.21875 Z M 122.933594 248.730469 L 75.238281 248.730469 L 75.238281 245.804688 C 75.238281 244.195312 76.53125 242.558594 78.480469 242.558594 L 119.691406 242.558594 C 121.324219 242.558594 122.933594 243.851562 122.933594 245.804688 Z M 129.4375 245.488281 C 129.4375 240.292969 125.222656 235.730469 119.691406 235.730469 L 78.480469 235.730469 C 73.289062 235.730469 68.757812 239.949219 68.757812 245.488281 L 68.757812 246.777344 C 68.757812 249.046875 68.757812 251.65625 70.390625 253.609375 C 71.367188 254.582031 72.972656 255.21875 74.921875 255.21875 L 122.933594 255.21875 C 124.882812 255.21875 126.515625 254.582031 127.488281 253.609375 C 129.4375 251.65625 129.097656 249.046875 129.097656 246.777344 Z M 227.429688 244.511719 L 227.429688 245.144531 C 227.429688 247.097656 225.796875 249.046875 223.53125 249.046875 L 151.492188 249.046875 C 149.542969 249.046875 147.59375 247.4375 147.59375 245.144531 L 147.59375 244.511719 L 140.792969 211.710938 C 140.792969 208.464844 143.378906 202.296875 144.695312 201.320312 L 230.328125 201.320312 C 231.960938 202.296875 234.226562 208.464844 234.226562 211.710938 Z M 230.671875 194.832031 L 144.351562 194.832031 C 137.210938 194.832031 133.972656 208.148438 133.972656 212.027344 L 133.972656 212.683594 L 140.792969 245.488281 C 141.113281 250.996094 145.644531 255.21875 150.835938 255.21875 L 222.871094 255.21875 C 228.378906 255.21875 232.9375 250.679688 232.9375 245.488281 L 239.734375 212.683594 L 239.734375 212.027344 C 240.734375 207.808594 237.492188 194.832031 230.671875 194.832031 " fill-opacity="1" fill-rule="nonzero"/></svg>